<svg width="59px" height="59px" viewBox="0 0 59 59" version="1.1" xmlns="http://www.w3.org/2000/svg" xmlns:xlink="http://www.w3.org/1999/xlink">
    <!-- Generator: Sketch 44.1 (41455) - http://www.bohemiancoding.com/sketch -->
    <title>Icon_energy_outline</title>
    <desc>Created with Sketch.</desc>
    <defs></defs>
    <g id="Guide-and-Specs_EN___wnkKRDsZ" stroke="none" stroke-width="1" fill="none" fill-rule="evenodd">
        <g id="Icons___wnkKRDsZ" transform="translate(-473.000000, -634.000000)">
            <g id="outline-icons___wnkKRDsZ" transform="translate(260.000000, 571.000000)">
                <g id="Icon_energy_outline___wnkKRDsZ" transform="translate(214.000000, 64.000000)">
                    <circle id="bg_icon___wnkKRDsZ" stroke="#00A335" stroke-width="1.1" cx="28.5" cy="28.5" r="28.5"></circle>
                    <g id="energy___wnkKRDsZ" transform="translate(19.730769, 14.346154)" fill="#00A335">
                        <path d="M18.5638603,10.9974764 C18.4615226,10.8074886 18.2656418,10.6884404 18.0521717,10.6884404 L11.6464699,10.6884404 L11.6464699,0.594625351 C11.6464699,0.332067111 11.4761735,0.099678607 11.2291239,0.0246619671 C10.9788762,-0.0511700711 10.7134377,0.0523855079 10.5743224,0.273358436 L0.0927009399,16.8976982 C-0.0232285114,17.0803474 -0.0304241325,17.3127359 0.0711140766,17.5035391 C0.173451799,17.6943423 0.368533083,17.812575 0.582003176,17.812575 L6.987705,17.812575 L6.987705,27.9063901 C6.987705,28.1697637 7.15800136,28.4013368 7.40585054,28.4763535 C7.46021745,28.4926614 7.51538388,28.5 7.56975079,28.5 C7.76483208,28.5 7.9503192,28.4005214 8.05985254,28.227657 L18.541474,11.6033173 C18.6574034,11.420668 18.6653986,11.1882795 18.5638603,10.9974764 Z M8.15259611,25.8842024 L8.15259611,17.2189651 C8.15259611,16.891175 7.89195472,16.6253551 7.57055031,16.6253551 L1.64935364,16.6253551 L10.4823783,2.61681304 L10.4823783,11.2820503 C10.4823783,11.6098404 10.7422202,11.8748449 11.0636246,11.8748449 L16.9856208,11.8748449 L8.15259611,25.8842024 Z" id="Shape___wnkKRDsZ"></path>
                    </g>
                </g>
            </g>
        </g>
    </g>
</svg>