<svg width="59px" height="59px" viewBox="0 0 59 59" version="1.1" xmlns="http://www.w3.org/2000/svg" xmlns:xlink="http://www.w3.org/1999/xlink">
    <!-- Generator: Sketch 44.1 (41455) - http://www.bohemiancoding.com/sketch -->
    <title>icon_wifi_outline</title>
    <desc>Created with Sketch.</desc>
    <defs></defs>
    <g id="Guide-and-Specs_EN___RWzZbZa9" stroke="none" stroke-width="1" fill="none" fill-rule="evenodd">
        <g id="Icons___RWzZbZa9" transform="translate(-366.000000, -634.000000)">
            <g id="outline-icons___RWzZbZa9" transform="translate(260.000000, 571.000000)">
                <g id="icon_wifi_outline___RWzZbZa9" transform="translate(107.000000, 64.000000)">
                    <circle id="bg_icon___RWzZbZa9" stroke="#00A335" stroke-width="1.1" cx="28.5" cy="28.5" r="28.5"></circle>
                    <g id="wifi___RWzZbZa9" transform="translate(12.057692, 16.442308)" fill="#00A335">
                        <path d="M32.6641132,6.20756553 C28.2313968,2.2044356 22.4696176,0 16.4427777,0 C10.4140579,0 4.65321855,2.2044356 0.22050223,6.20756553 C-0.0577174542,6.45781865 -0.0746362188,6.88104084 0.181025112,7.15245508 L15.9380345,23.8982532 C16.067745,24.0362605 16.2510317,24.1153846 16.4418377,24.1153846 C16.6335837,24.1153846 16.8168703,24.0362605 16.9465809,23.8982532 L32.7035903,7.15245508 C32.9592516,6.88104084 32.9423328,6.45781865 32.6641132,6.20756553 Z M16.4427777,22.4556176 L12.8569395,18.6456978 C14.9614458,17.1092172 17.9222296,17.1082972 20.0276759,18.6456978 L16.4427777,22.4556176 Z M20.9582079,17.657566 C19.6535832,16.6519532 18.0829579,16.0769231 16.4427777,16.0769231 C14.8007176,16.0769231 13.2310322,16.6519532 11.9273474,17.657566 L9.11977239,14.6738495 C11.1895013,12.9892412 13.7602135,12.0581523 16.4427777,12.0581523 C19.1234619,12.0581523 21.6951141,12.9892412 23.764843,14.6738495 L20.9582079,17.657566 Z M24.6916153,13.6884778 C22.368105,11.7756975 19.4684167,10.717642 16.4427777,10.717642 C13.4152587,10.717642 10.5165104,11.7756975 8.19300007,13.6884778 L5.43618137,10.7590442 C8.51539653,8.14518714 12.3935533,6.69887129 16.4427777,6.69887129 C20.4901221,6.69887129 24.3682789,8.14518714 27.448434,10.7590442 L24.6916153,13.6884778 Z M28.3752063,9.77275249 C25.0422097,6.93256354 20.8350769,5.35928104 16.4427777,5.35928104 C12.0485985,5.35928104 7.84240567,6.93256354 4.50846912,9.77275249 L1.65953715,6.7448737 C5.76515735,3.2551307 10.987416,1.3405103 16.4427777,1.3405103 C21.8971994,1.3405103 27.119458,3.2551307 31.2250782,6.7448737 L28.3752063,9.77275249 Z" id="Shape___RWzZbZa9"></path>
                    </g>
                </g>
            </g>
        </g>
    </g>
</svg>