<svg width="59px" height="59px" viewBox="0 0 59 59" version="1.1" xmlns="http://www.w3.org/2000/svg" xmlns:xlink="http://www.w3.org/1999/xlink">
    <!-- Generator: Sketch 44.1 (41455) - http://www.bohemiancoding.com/sketch -->
    <title>icon_security_outline</title>
    <desc>Created with Sketch.</desc>
    <defs></defs>
    <g id="Guide-and-Specs_EN___bM0UqFvs" stroke="none" stroke-width="1" fill="none" fill-rule="evenodd">
        <g id="Icons___bM0UqFvs" transform="translate(-259.000000, -634.000000)">
            <g id="outline-icons___bM0UqFvs" transform="translate(260.000000, 571.000000)">
                <g id="icon_security_outline___bM0UqFvs" transform="translate(0.000000, 64.000000)">
                    <circle id="bg_icon___bM0UqFvs" stroke="#00A335" stroke-width="1.1" cx="28.5" cy="28.5" r="28.5"></circle>
                    <path d="M28.235817,43.4363644 C28.1498179,43.4787881 28.0546345,43.5 27.961121,43.5 C27.8667725,43.5 27.773259,43.4787881 27.686425,43.4363644 C18.4027029,38.8717304 17,35.5014886 17,26.2816622 L17,19.1569171 C17,18.9048221 17.1636487,18.6804656 17.4066168,18.5964339 L27.759065,15.0336535 C27.8901509,14.9887822 28.032926,14.9887822 28.1640119,15.0336535 L38.5156251,18.5964339 C38.7594283,18.6804656 38.9230769,18.9048221 38.9230769,19.1569171 L38.9230769,26.2816622 C38.9230769,35.5014886 37.5203741,38.8717304 28.235817,43.4363644 Z M37.7048963,19.5770756 L27.961121,16.2239664 L18.2181806,19.5770756 L18.2181806,26.2816622 C18.2181806,35.1123321 19.3729057,37.9710412 27.961121,42.2403405 C36.5493363,37.9710412 37.7048963,35.1123321 37.7048963,26.2816622 L37.7048963,19.5770756 Z M26.5650977,32.6387002 C26.4457009,32.7545497 26.2904017,32.8124745 26.1342675,32.8124745 C25.9789682,32.8124745 25.8228341,32.7545497 25.7042723,32.6387002 L20.8323846,27.8880544 C20.5944261,27.6571712 20.5944261,27.2810682 20.8323846,27.0493692 C21.0703431,26.8168543 21.4552515,26.8168543 21.69321,27.0493692 L26.1342675,31.3790407 L34.229032,23.4865887 C34.4669905,23.2548897 34.8527338,23.2548897 35.0898574,23.4865887 C35.3278159,23.7182877 35.3278159,24.0943907 35.0898574,24.3260898 L26.5650977,32.6387002 Z" id="Shape___bM0UqFvs" fill="#00A335"></path>
                </g>
            </g>
        </g>
    </g>
</svg>