<svg width="59px" height="59px" viewBox="0 0 59 59" version="1.1" xmlns="http://www.w3.org/2000/svg" xmlns:xlink="http://www.w3.org/1999/xlink">
    <!-- Generator: Sketch 44.1 (41455) - http://www.bohemiancoding.com/sketch -->
    <title>icon_comunicacao_outline</title>
    <desc>Created with Sketch.</desc>
    <defs></defs>
    <g id="Guide-and-Specs_EN___1csB0OCR" stroke="none" stroke-width="1" fill="none" fill-rule="evenodd">
        <g id="Icons___1csB0OCR" transform="translate(-474.000000, -741.000000)" stroke="#00A335">
            <g id="outline-icons___1csB0OCR" transform="translate(260.000000, 571.000000)">
                <g id="icon_comunicacao_outline___1csB0OCR" transform="translate(215.000000, 171.000000)">
                    <circle id="bg_icon___1csB0OCR" stroke-width="1.1" cx="28.5" cy="28.5" r="28.5"></circle>
                    <path d="M42.1802512,22.2301282 L33.3426907,22.2301282 L33.3426907,17.802643 C33.3426907,16.8087315 32.5258276,16 31.5219226,16 L16.820768,16 C15.816523,16 15,16.8087315 15,17.802643 L15,32.8355546 C15,33.2146685 15.2288713,33.5537162 15.5825506,33.69883 C15.7002169,33.7469768 15.8229844,33.7702085 15.9443916,33.7702085 C16.1895866,33.7702085 16.4300205,33.6752616 16.6106009,33.4961421 L20.1062443,30.0352964 L25.6579885,30.0352964 L25.6579885,34.4624449 C25.6579885,35.4566931 26.4748516,36.265088 27.4787566,36.265088 L38.8937547,36.265088 L42.3893981,39.7259336 C42.5703186,39.9050532 42.8107525,40 43.0556074,40 C43.1773547,40 43.3001222,39.9764316 43.4174485,39.9282848 C43.7714678,39.7831711 43.999999,39.4441233 43.999999,39.0650094 L43.999999,24.0327712 C44.0010193,23.0388597 43.1841562,22.2301282 42.1802512,22.2301282 Z M25.6583286,24.0327712 L25.6583286,29.0252238 L20.0749573,29.0252238 C19.8229608,29.0252238 19.5859277,29.1225274 19.4077278,29.2989535 L16.0202286,32.6527314 L16.0202286,17.802643 C16.0202286,17.3656182 16.3793491,17.0100727 16.820768,17.0100727 L31.5215826,17.0100727 C31.9630015,17.0100727 32.322122,17.3656182 32.322122,17.802643 L32.322122,22.2297915 L27.4794367,22.2297915 C26.4751916,22.2301282 25.6583286,23.0388597 25.6583286,24.0327712 Z M32.3224621,23.2402009 L32.3224621,28.2326534 C32.3224621,28.6696782 31.9633416,29.0252238 31.5219226,29.0252238 L26.6785572,29.0252238 L26.6785572,24.0327712 C26.6785572,23.5957465 27.0376777,23.2402009 27.4790966,23.2402009 L32.3224621,23.2402009 Z M42.9807906,38.8828596 L39.5932915,35.5290817 C39.4150915,35.3526556 39.1780584,35.255352 38.926062,35.255352 L27.4794367,35.255352 C27.0380178,35.255352 26.6788973,34.8998064 26.6788973,34.4627816 L26.6788973,30.0352964 L31.5219226,30.0352964 C32.5261677,30.0352964 33.3426907,29.2265649 33.3426907,28.2326534 L33.3426907,23.2402009 L42.1802512,23.2402009 C42.6216702,23.2402009 42.9807906,23.5957465 42.9807906,24.0327712 L42.9807906,38.8828596 Z" id="Shape___1csB0OCR" stroke-width="0.2" fill="#00A335" fill-rule="nonzero"></path>
                </g>
            </g>
        </g>
    </g>
</svg>