<svg width="59px" height="59px" viewBox="0 0 59 59" version="1.1" xmlns="http://www.w3.org/2000/svg" xmlns:xlink="http://www.w3.org/1999/xlink">
    <!-- Generator: Sketch 44.1 (41455) - http://www.bohemiancoding.com/sketch -->
    <title>Group 3</title>
    <desc>Created with Sketch.</desc>
    <defs></defs>
    <g stroke="none" stroke-width="1" fill="none" fill-rule="evenodd">
        <g transform="translate(-121.000000, -877.000000)">
            <g transform="translate(0.000000, 449.000000)">
                <g transform="translate(122.000000, 427.000000)">
                    <g transform="translate(0.000000, 2.000000)">
                        <g id="Group-3___T0JO5DGG">
                            <circle stroke="#00A335" stroke-width="1.1" cx="28.5" cy="28.5" r="28.5"></circle>
                            <path d="M32.6992394,29.9850935 C31.6366731,29.9850935 30.576249,30.4069229 29.7839658,31.244442 C28.2443871,32.8721688 28.3015144,35.4547901 29.9107168,37.0120917 C30.6919316,37.7679897 31.6955855,38.1435911 32.6978112,38.1435911 C33.7600205,38.1435911 34.8204446,37.7214006 35.6123707,36.8838816 C37.1523064,35.2557936 37.0948222,32.6738945 35.4859767,31.116593 C34.704762,30.3603339 33.7011081,29.9847324 32.6992394,29.9850935 Z M34.8379398,36.1348455 C34.2745226,36.7311129 33.5143735,37.0601253 32.6978112,37.0601253 C31.9315923,37.0601253 31.2046484,36.7650615 30.6512285,36.229107 C30.0795992,35.6761783 29.7550451,34.9307538 29.7375499,34.1304338 C29.7196977,33.3304748 30.0114036,32.5716876 30.5580397,31.993478 C31.122171,31.3968495 31.8826772,31.0681982 32.6992394,31.0681982 C33.4651012,31.0681982 34.1916881,31.3629009 34.7451081,31.8992165 C35.3170944,32.4521452 35.6412914,33.1975697 35.6595007,33.9975286 C35.6766389,34.7974875 35.38529,35.5566359 34.8379398,36.1348455 Z" fill="#00A335" fill-rule="nonzero"></path>
                            <path d="M40.7416813,34.075177 C41.0912285,33.8931547 41.3425882,33.4211248 41.3004569,33.0263821 L41.1133653,31.9833657 C41.016606,31.5983741 40.6185007,31.2458866 40.2282503,31.1996587 C40.2282503,31.1996587 39.5884254,31.1241773 39.2549453,30.4975729 C38.9214651,29.8702462 39.2120999,29.2887862 39.2120999,29.2887862 C39.3891943,28.9344928 39.3270684,28.395288 39.0746375,28.0919176 C39.0746375,28.0919176 39.0053707,28.0088519 38.7018824,27.7148715 C38.398394,27.4212523 38.3134172,27.355522 38.3134172,27.355522 C38.2098741,27.2749844 38.0809808,27.2200888 37.9435185,27.1854179 L37.9435185,21.3108662 C37.9435185,20.5163246 37.4754323,19.4209406 36.903803,18.8763185 L32.9138235,15.0776873 C32.3418372,14.5330652 31.2314268,14.0877607 30.4459275,14.0877607 L17.5923023,14.0877607 C16.806803,14.0877607 16.1641218,14.7378402 16.1641218,15.5323818 L16.1641218,39.3686298 C16.1641218,40.1631714 16.806803,40.8132509 17.5923023,40.8132509 L27.1475445,40.8132509 C27.3189261,40.9230421 27.5388659,40.9829939 27.7573776,40.9829939 C27.942684,40.9829939 28.12442,40.9425445 28.2715226,40.8587565 C28.2715226,40.8587565 28.5260958,40.7142944 28.8859973,40.7142944 C29.0602353,40.7142944 29.2591094,40.748243 29.4661956,40.8490053 C30.0999508,41.1574319 30.2027798,41.8006494 30.2027798,41.8006494 C30.2656197,42.1928641 30.6312339,42.5796614 31.0161286,42.6605601 L32.0544159,42.8032165 L32.1040451,42.8050223 C32.4839412,42.8050223 32.9081108,42.5377674 33.0655677,42.1921418 C33.0655677,42.1921418 33.3337086,41.602014 34.0253051,41.4756097 C34.1095677,41.46008 34.190617,41.4532181 34.2673817,41.4532181 C34.8225869,41.4532181 35.1749904,41.8075114 35.1749904,41.8075114 C35.361725,41.9956733 35.6580725,42.1007695 35.9404952,42.1007695 C36.0793858,42.1007695 36.21542,42.0754886 36.3332449,42.0220376 L37.2558495,41.5171426 C37.5879015,41.3047833 37.7957018,40.8121675 37.71858,40.4228421 C37.71858,40.4228421 37.592186,39.7846807 38.0784815,39.2711179 C38.4287428,38.9005726 38.857197,38.8485662 39.0685677,38.8485662 C39.1503311,38.8485662 39.1999603,38.8561505 39.1999603,38.8561505 C39.2413776,38.8630125 39.2838659,38.8659017 39.3270684,38.8659017 C39.6869699,38.8659017 40.0861464,38.6477639 40.2603844,38.3396985 L40.7181163,37.3855262 C40.8623625,37.0160644 40.7441806,36.4934727 40.4553311,36.2247732 C40.4553311,36.2247732 39.9811751,35.7830803 40.075435,35.0773829 C40.170409,34.3724078 40.7416813,34.075177 40.7416813,34.075177 Z M31.3385404,15.3752793 C31.6705923,15.5052952 31.9865773,15.6833447 32.1793817,15.8668116 L36.1697182,19.6654428 C36.342528,19.8301296 36.5135527,20.1093026 36.6438741,20.4083392 L32.2311532,20.4083392 C31.9855062,20.4083392 31.7652093,20.3082992 31.6009685,20.14289 C31.4374419,19.9767586 31.3385404,19.7535647 31.3385404,19.505451 L31.3385404,15.3752793 Z M26.1835226,38.8388151 C26.0567715,39.0930684 26.0546293,39.4408609 26.154959,39.7297851 L17.5923023,39.7297851 C17.3987839,39.7297851 17.2352572,39.564376 17.2352572,39.3686298 L17.2352572,15.5323818 C17.2352572,15.3366357 17.3987839,15.1712266 17.5923023,15.1712266 L30.2674049,15.1712266 L30.2674049,19.5050898 C30.2695472,20.6011961 31.1475212,21.4892769 32.2311532,21.4914438 L36.8727401,21.4914438 L36.8727401,21.3108662 L36.8730971,27.3656343 C36.7734815,27.3923598 36.6495869,27.4147515 36.5092681,27.4147515 C36.3353871,27.4147515 36.136156,27.3808029 35.9297839,27.2800405 C35.2956717,26.9716139 35.1931997,26.3276741 35.1931997,26.3276741 C35.1307168,25.9354595 34.7647456,25.5486622 34.380565,25.4677634 L33.3419207,25.325107 L33.2922914,25.3236624 C32.9127524,25.3236624 32.4878687,25.5905562 32.3307688,25.9365429 C32.3307688,25.9365429 32.0622709,26.5270318 31.3706744,26.6537973 C31.2867688,26.669327 31.2057196,26.6761889 31.1285978,26.6761889 C30.5730356,26.6761889 30.2209891,26.3215344 30.2209891,26.3215344 C30.0342544,26.1333725 29.737907,26.0279152 29.4551272,26.0279152 C29.3162367,26.0279152 29.1802025,26.0531961 29.0623776,26.1066471 L28.140487,26.6115421 C27.808435,26.8239014 27.5999207,27.3165172 27.6773995,27.7058426 C27.6773995,27.7058426 27.8037934,28.344004 27.3174979,28.8575668 C26.9672367,29.2284732 26.5387825,29.2801184 26.3274118,29.2801184 C26.2456484,29.2801184 26.1963762,29.2725342 26.1963762,29.2725342 C26.1546019,29.2660334 26.1121135,29.2631441 26.0689111,29.2631441 C25.7090096,29.2631441 25.3101902,29.4812819 25.1359521,29.7889862 L24.6782202,30.7435196 C24.533974,31.1129815 24.652156,31.6355731 24.9410055,31.9042727 C24.9410055,31.9042727 25.4151614,32.3459656 25.3205445,33.051663 C25.2255705,33.7562769 24.6550123,34.0531465 24.6550123,34.0531465 C24.3058222,34.2351688 24.0541053,34.7071987 24.0962367,35.1019414 L24.2829713,36.1456802 C24.3797305,36.5306717 24.7781929,36.8831592 25.1684432,36.929026 C25.1684432,36.929026 25.807554,37.0041463 26.1406772,37.6311118 C26.4734432,38.2580774 26.1835226,38.8388151 26.1835226,38.8388151 Z M39.0135828,34.9321985 C38.8614815,36.0752549 39.5323694,36.8250132 39.7012517,36.9936728 L39.7062503,37.0131751 L39.3420643,37.7719624 L39.3288536,37.7799078 C39.2727975,37.7726847 39.1831792,37.7643781 39.0685677,37.7643781 C38.6768892,37.7643781 37.9270944,37.8626123 37.3047647,38.5213596 C36.6756512,39.1862464 36.5642531,40.0443514 36.6610123,40.5958355 L36.6538714,40.6142544 L35.9208577,41.0151367 L35.9012202,41.0108029 C35.7366224,40.8547838 35.1524966,40.3693911 34.2673817,40.3693911 C34.1231354,40.3693911 33.977104,40.3827538 33.835,40.408757 C32.9402449,40.5723604 32.3518345,41.1996871 32.1097579,41.7027764 L32.0911915,41.7143333 L31.2653461,41.6012917 L31.2524925,41.5868455 C31.2064337,41.3513723 30.9572161,40.3726415 29.9310684,39.8728026 C29.6011587,39.7124497 29.2494692,39.6308286 28.8856402,39.6308286 C28.3322202,39.6308286 27.9230465,39.8189905 27.7748728,39.8984446 L27.7570205,39.8995281 L27.7156033,39.8951942 C27.6716867,39.8561895 27.5845677,39.7763741 27.4346088,39.6311897 C27.2835787,39.485283 27.2007442,39.4004115 27.159684,39.357434 L27.1532572,39.2978434 C27.2471601,39.0959576 27.6295554,38.1461192 27.0836334,37.1189936 C26.653394,36.3082001 25.8807483,35.935849 25.3312558,35.8582006 L25.3173311,35.8470048 L25.1688003,35.01707 L25.1795116,34.9982899 C25.6654501,34.731035 26.2585021,34.1084033 26.3813256,33.1972085 C26.5344979,32.0541521 25.8632531,31.3040326 25.6943707,31.1353731 L25.6893721,31.1158707 L26.0535581,30.3567223 L26.0667688,30.3487769 C26.1224679,30.3563612 26.2117291,30.3643066 26.3270547,30.3643066 C26.7190903,30.3643066 27.468528,30.2660723 28.0912148,29.6073251 C28.7196142,28.9427994 28.8310123,28.0850556 28.7346101,27.5328492 L28.7421081,27.5144303 L29.4744077,27.113548 L29.4940451,27.1178818 C29.659,27.2746232 30.2431259,27.7600159 31.1282408,27.7600159 C31.27213,27.7600159 31.4185185,27.7466532 31.5616936,27.7202888 C32.4557346,27.5563243 33.044145,26.9289976 33.2869357,26.4255472 L33.305145,26.4139902 L34.1309904,26.5270318 L34.14313,26.5411169 C34.1895458,26.7773124 34.4384063,27.7564043 35.4649111,28.2562432 C35.7948208,28.4165962 36.1461532,28.4982173 36.5096252,28.4982173 C37.0641163,28.4982173 37.4736471,28.3096942 37.6218208,28.2298789 L37.639316,28.2287954 L37.6803762,28.2331293 C37.7246498,28.2724952 37.8117688,28.3526717 37.9617278,28.4978561 C38.1120438,28.6430405 38.1948782,28.727912 38.2366525,28.7708895 L38.2427223,28.830119 C38.1484624,29.0334494 37.7664241,29.9829266 38.3123461,31.0111357 C38.8521984,32.025982 39.8294309,32.2343686 40.0640096,32.2704841 L40.0786484,32.2824022 L40.2275363,33.1119759 L40.2168249,33.1311171 C40.0108098,33.247048 39.1685404,33.7887809 39.0135828,34.9321985 Z" fill="#00A335" fill-rule="nonzero"></path>
                        </g>
                    </g>
                </g>
            </g>
        </g>
    </g>
</svg>