<svg width="59px" height="59px" viewBox="0 0 59 59" version="1.1" xmlns="http://www.w3.org/2000/svg" xmlns:xlink="http://www.w3.org/1999/xlink">
    <!-- Generator: Sketch 44.1 (41455) - http://www.bohemiancoding.com/sketch -->
    <title>Group 4</title>
    <desc>Created with Sketch.</desc>
    <defs></defs>
    <g stroke="none" stroke-width="1" fill="none" fill-rule="evenodd">
        <g transform="translate(-120.000000, -672.000000)" stroke="#00A335">
            <g transform="translate(0.000000, 124.000000)">
                <g transform="translate(120.000000, 333.000000)">
                    <g transform="translate(1.000000, 216.000000)">
                        <g id="Group-4___GGjQLPTt">
                            <g id="icon_chat___GGjQLPTt">
                                <circle stroke-width="1.1" cx="28.5" cy="28.5" r="28.5"></circle>
                                <path d="M40,25.7130677 L40,20.2317209 C40,19.0012316 39.0202644,18 37.816193,18 L20.183807,18 C18.9793277,18 18,19.0012316 18,20.2317209 L18,38.8428731 C18,39.3122265 18.2745054,39.7319767 18.698704,39.9116315 C18.8398317,39.9712386 18.9870775,40 19.1326918,40 C19.4267757,40 19.7151492,39.8824532 19.9317352,39.6606984 L24.1243673,35.3760776 L38.0330377,35.3334719 C39.3443459,35.1852314 40,34.5117866 40,33.3131375 C40,32.9378522 40,32.3729058 40,31.6182983 L40,25.7130677 Z M37.7915231,34.11311 C37.6855527,34.1131115 37.5925228,34.1131123 37.4427619,34.1131132 C36.4925875,34.1131193 32.0325269,34.1131183 24.0625801,34.11311 C23.7603386,34.11311 23.4760439,34.2335746 23.2623131,34.4519948 L19.1993878,38.6040629 L19.1993878,20.2192507 C19.1993878,19.6782022 19.6301126,19.2380271 20.1595451,19.2380271 L37.7915231,19.2380271 C38.3209556,19.2380271 38.7516803,19.6782022 38.7516803,20.2192507 C38.8568312,27.546233 38.8907772,31.8234181 38.8535185,33.0508061 C38.8323997,33.7465037 37.8974935,34.1131085 37.7915231,34.11311 Z" stroke-width="0.2" fill="#00A335" fill-rule="nonzero"></path>
                            </g>
                        </g>
                    </g>
                </g>
            </g>
        </g>
    </g>
</svg>