<svg width="16px" height="16px" viewBox="0 0 16 16" version="1.1" xmlns="http://www.w3.org/2000/svg" xmlns:xlink="http://www.w3.org/1999/xlink">
    <!-- Generator: sketchtool 44.1 (41455) - http://www.bohemiancoding.com/sketch -->
    <desc>Created with sketchtool.</desc>
    <defs></defs>
    <g stroke="none" stroke-width="1" fill="none" fill-rule="evenodd">
        <g transform="translate(-1288.000000, -145.000000)" fill="#5E6573">
            <g transform="translate(122.000000, 145.000000)">
                <g transform="translate(1166.000000, 0.000000)">
                    <path d="M7.82626357,8.81538189 L14.5741304,15.6373187 C14.6974348,15.761978 14.8591739,15.8243956 15.0207391,15.8243956 C15.1823043,15.8243956 15.3440435,15.7621538 15.4675217,15.6373187 C15.7143043,15.3881758 15.7143043,14.9834286 15.4675217,14.7342857 L8.71956792,7.91226101 L15.4675217,1.09015385 C15.7143043,0.841010989 15.7143043,0.436263736 15.4675217,0.187120879 C15.2207391,-0.0623736264 14.820913,-0.0623736264 14.5741304,0.187120879 L7.82629895,7.00918681 L1.07847826,0.187296703 C0.831695652,-0.0621978022 0.431869565,-0.0621978022 0.185086957,0.187296703 C-0.0616956522,0.43643956 -0.0616956522,0.841186813 0.185086957,1.09032967 L6.933,7.91231315 L0.18526087,14.7342857 C-0.0615217391,14.9834286 -0.0615217391,15.3881758 0.18526087,15.6373187 C0.308565217,15.761978 0.470304348,15.8243956 0.631869565,15.8243956 C0.793434783,15.8243956 0.955173913,15.7621538 1.07847826,15.6373187 L7.82626357,8.81538189 Z" id="icon_close___n2vUd0RC"></path>
                </g>
            </g>
        </g>
    </g>
</svg>