<svg width="59px" height="59px" viewBox="0 0 59 59" version="1.1" xmlns="http://www.w3.org/2000/svg" xmlns:xlink="http://www.w3.org/1999/xlink">
    <!-- Generator: Sketch 44.1 (41455) - http://www.bohemiancoding.com/sketch -->
    <title>Group 3</title>
    <desc>Created with Sketch.</desc>
    <defs></defs>
    <g stroke="none" stroke-width="1" fill="none" fill-rule="evenodd">
        <g transform="translate(-120.000000, -565.000000)">
            <g transform="translate(0.000000, 124.000000)">
                <g transform="translate(120.000000, 333.000000)">
                    <g transform="translate(1.000000, 109.000000)">
                        <g id="Group-3___8sWyaneq">
                            <g id="Icon_phone_outline___8sWyaneq">
                                <g id="sac___8sWyaneq">
                                    <circle stroke="#00A335" stroke-width="1.1" cx="28.5" cy="28.5" r="28.5" fill="#ffffff"></circle>
                                    <path d="M40.0741818,41.1922443 C27.9025455,41.1922443 18,31.210552 18,18.9410679 C18,17.8708416 18.8632727,17 19.9258182,17 L24.3330909,17 C25.3956364,17 26.2596364,17.8708416 26.2596364,18.9410679 C26.2596364,20.4203258 26.4894545,21.8746606 26.9425455,23.2622896 C27.1643636,23.9681991 26.9818182,24.7239548 26.4676364,25.2422081 L24.4887273,27.8928507 C26.1367273,31.023629 28.0654545,32.9661629 31.1941818,34.6499367 L33.8923636,32.5967149 C34.3389091,32.1393032 35.112,31.9567783 35.7941818,32.1920814 C37.1614545,32.6480271 38.6043636,32.8796652 40.0741818,32.8796652 C41.1367273,32.8796652 42,33.7505068 42,34.820733 L42,39.2511765 C42,40.3214027 41.1367273,41.1922443 40.0741818,41.1922443 Z M40.6669091,34.820733 C40.6669091,34.4916018 40.4014545,34.2233122 40.0741818,34.2233122 C38.4625455,34.2233122 36.8792727,33.9689502 35.3701818,33.4660905 C35.16,33.3957195 34.9258182,33.4492308 34.7658182,33.6082986 L31.6610909,35.9789231 C31.4552727,36.1350588 31.1810909,36.1592489 30.9556364,36.0404977 C27.2530909,34.1287511 24.9803636,31.8372941 23.1098182,28.131819 C22.9934545,27.9023801 23.0167273,27.6267602 23.1709091,27.4222443 L25.464,24.3625701 C25.688,24.128 25.7432727,23.897095 25.6741818,23.6757195 C25.1781818,22.15981 24.9258182,20.564 24.9258182,18.9410679 C24.9258182,18.6119367 24.6603636,18.3436471 24.3330909,18.3436471 L19.9258182,18.3436471 C19.5992727,18.3436471 19.3338182,18.6119367 19.3338182,18.9410679 C19.3338182,30.469457 28.6378182,39.8485973 40.0741818,39.8485973 C40.4014545,39.8485973 40.6669091,39.5810407 40.6669091,39.2511765 L40.6669091,34.820733 Z M39.9789091,27.7521086 L33.6094545,27.7521086 L31.1381818,30.2436833 C31.0101818,30.3719638 30.84,30.4401357 30.6669091,30.4401357 C30.5810909,30.4401357 30.4930909,30.424009 30.4109091,30.3888235 C30.1629091,30.2854661 30,30.0399005 30,29.7679457 L30,20.380009 C30,19.268733 30.8974545,18.3641719 32,18.3641719 L39.9789091,18.3641719 C41.0821818,18.3641719 41.9789091,19.268733 41.9789091,20.380009 L41.9789091,25.7362715 C41.9789091,26.8475475 41.0821818,27.7521086 39.9789091,27.7521086 Z M40.6458182,20.380009 C40.6458182,20.0098281 40.3469091,19.708552 39.9789091,19.708552 L32,19.708552 C31.6327273,19.708552 31.3330909,20.0098281 31.3330909,20.380009 L31.3330909,28.1457466 L32.8618182,26.604914 C32.9869091,26.4788326 33.1563636,26.4077285 33.3338182,26.4077285 L39.9789091,26.4077285 C40.3469091,26.4077285 40.6458182,26.1071855 40.6458182,25.7362715 L40.6458182,20.380009 Z" stroke="#FFFFFF" stroke-width="0.2" fill="#00A335"></path>
                                </g>
                            </g>
                        </g>
                    </g>
                </g>
            </g>
        </g>
    </g>
</svg>