<svg width="59px" height="59px" viewBox="0 0 59 59" version="1.1" xmlns="http://www.w3.org/2000/svg" xmlns:xlink="http://www.w3.org/1999/xlink">
    <!-- Generator: Sketch 44.1 (41455) - http://www.bohemiancoding.com/sketch -->
    <title>Group 5</title>
    <desc>Created with Sketch.</desc>
    <defs></defs>
    <g stroke="none" stroke-width="1" fill="none" fill-rule="evenodd">
        <g transform="translate(-120.000000, -775.000000)">
            <g transform="translate(0.000000, 124.000000)">
                <g transform="translate(120.000000, 333.000000)">
                    <g transform="translate(1.000000, 319.000000)">
                        <g id="Group-5___1qOvjqBc">
                            <g id="tutorial_icon___1qOvjqBc">
                                <circle stroke="#00A335" stroke-width="1.1" cx="28.5" cy="28.5" r="28.5" fill="#ffffff"></circle>
                                <path d="M39.7495135,36.4544118 L31.8735405,36.4544118 C31.8976216,37.3625 32.0698378,38.8147059 32.712,39.4963235 C32.946973,39.7470588 33.2177027,39.8639706 33.5621351,39.8639706 C33.8737297,39.8639706 34.1247568,40.1176471 34.1247568,40.4316176 C34.1247568,40.7463235 33.8737297,41 33.5621351,41 L23.4378649,41 C23.127,41 22.8752432,40.7463235 22.8752432,40.4316176 C22.8752432,40.1176471 23.127,39.8639706 23.4378649,39.8639706 C23.7815676,39.8639706 24.0522973,39.7470588 24.2887297,39.4963235 C24.9294324,38.8147059 25.1023784,37.3625 25.1264595,36.4544118 L17.2497568,36.4544118 C16.0084865,36.4544118 15,35.4352941 15,34.1823529 L15,18.2727941 C15,17.0191176 16.0084865,16 17.2497568,16 L39.7495135,16 C40.9907838,16 42,17.0191176 42,18.2727941 L42,34.1823529 C42,35.4352941 40.9907838,36.4544118 39.7495135,36.4544118 Z M31.5728919,39.8632353 C30.8935135,38.8117647 30.7621622,37.2970588 30.7453784,36.4544118 L26.2546216,36.4544118 C26.2378378,37.2970588 26.1064865,38.8117647 25.4271081,39.8632353 L31.5728919,39.8632353 Z M40.8747568,18.2727941 C40.8747568,17.6463235 40.3697838,17.1360294 39.7495135,17.1360294 L17.2497568,17.1360294 C16.6294865,17.1360294 16.1252432,17.6463235 16.1252432,18.2727941 L16.1252432,30.7727941 L30.1046757,30.7727941 L30.0499459,30.7588235 C29.7981892,30.6948529 29.6215946,30.4661765 29.6215946,30.2044118 L29.6215946,26.7955882 C29.6215946,26.5338235 29.7981892,26.3051471 30.0499459,26.2411765 L31.848,25.7875 C31.8757297,25.7161765 31.9034595,25.6463235 31.9333784,25.5764706 L30.9803514,23.9727941 C30.8475405,23.7485294 30.8825676,23.4602941 31.0657297,23.275 L33.4526757,20.8639706 C33.6343784,20.6794118 33.918973,20.6426471 34.143,20.7779412 L35.7301622,21.7404412 C35.7994865,21.7110294 35.8688108,21.6823529 35.9395946,21.6544118 L36.3891081,19.8389706 C36.4518649,19.5845588 36.6780811,19.4058824 36.9371351,19.4058824 L40.3121351,19.4058824 C40.5719189,19.4058824 40.7981351,19.5845588 40.8608919,19.8389706 L40.8747568,19.8941176 L40.8747568,18.2727941 Z M40.8747568,22.7198529 C40.7988649,22.6897059 40.7266216,22.6536765 40.6485405,22.6264706 C40.4682973,22.5639706 40.3318378,22.4125 40.2858649,22.2257353 L39.8706486,20.5492647 L37.3793514,20.5492647 L36.9641351,22.2257353 C36.9181622,22.4125 36.780973,22.5632353 36.6014595,22.6264706 C36.3737838,22.7058824 36.1541351,22.7941176 35.9403243,22.8985294 C35.7695676,22.9830882 35.5681622,22.9735294 35.4025135,22.8742647 L33.9394054,21.9875 L32.1771081,23.7676471 L33.0557027,25.2448529 C33.1534865,25.4102941 33.1622432,25.6147059 33.0797838,25.7882353 C32.9754324,26.0044118 32.8885946,26.2264706 32.8097838,26.4558824 C32.7477568,26.6382353 32.5981622,26.7757353 32.4135405,26.8227941 L30.7534054,27.2419118 L30.7534054,29.7588235 L32.4135405,30.1772059 C32.5981622,30.2242647 32.7477568,30.3625 32.8097838,30.5441176 C32.8375135,30.6227941 32.8718108,30.6963235 32.9031892,30.7727941 L34.7479459,30.7727941 C34.350973,30.0867647 34.1211081,29.3147059 34.1211081,28.5 C34.1211081,25.9919118 36.1417297,23.9514706 38.625,23.9514706 C39.4313514,23.9514706 40.1961081,24.1830882 40.8747568,24.5845588 L40.8747568,22.7198529 Z M40.8747568,25.9875 C40.253027,25.4176471 39.4671081,25.0941176 38.625,25.0941176 C36.7656486,25.0941176 35.2529189,26.6220588 35.2529189,28.5 C35.2529189,29.35 35.5732703,30.1441176 36.1380811,30.7727941 L40.8747568,30.7727941 L40.8747568,25.9875 Z M40.8747568,31.9088235 L16.1252432,31.9088235 L16.1252432,34.1823529 C16.1252432,34.8080882 16.6302162,35.3183824 17.2497568,35.3183824 L39.7495135,35.3183824 C40.3705135,35.3183824 40.8747568,34.8080882 40.8747568,34.1823529 L40.8747568,31.9088235 Z M28.5,34.75 C27.879,34.75 27.3747568,34.2411765 27.3747568,33.6139706 C27.3747568,32.9860294 27.879,32.4772059 28.5,32.4772059 C29.121,32.4772059 29.6245135,32.9860294 29.6245135,33.6139706 C29.6245135,34.2411765 29.121,34.75 28.5,34.75 Z" fill="#00A335"></path>
                            </g>
                        </g>
                    </g>
                </g>
            </g>
        </g>
    </g>
</svg>