<svg width="46px" height="46px" viewBox="0 0 46 46" version="1.1" xmlns="http://www.w3.org/2000/svg" xmlns:xlink="http://www.w3.org/1999/xlink">
	<!-- Generator: Sketch 44.1 (41455) - http://www.bohemiancoding.com/sketch-->
	<title>Icons/Social/icon_facebook</title>
	<desc>Created with Sketch.</desc>
	<defs></defs>
	<g id="Symbols___clCZWXFC" stroke="none" stroke-width="1" fill="none" fill-rule="evenodd">
		<g id="Footer/footer_desktop___clCZWXFC" transform="translate(-1139.000000, -138.000000)">
			<g id="footer___clCZWXFC">
				<g id="redes-sociais___clCZWXFC" transform="translate(1139.000000, 87.000000)">
					<g id="facebook___clCZWXFC" transform="translate(1.000000, 52.000000)">
						<g id="Assets/Icons/Social/icon_facebook___clCZWXFC">
							<g id="icon_facebook___clCZWXFC">
								<path id="Shape-3___clCZWXFC" d="M19.5677358,32.6958491 L19.5677358,22.984717 L17,22.984717 L17,19.4881132 L19.5677358,19.4881132 L19.5677358,16.5016981 C19.5677358,14.1549057 21.0845283,12 24.579434,12 C25.9945283,12 27.0411321,12.1356604 27.0411321,12.1356604 L26.9584906,15.4007547 C26.9584906,15.4007547 25.8913208,15.3903774 24.7267925,15.3903774 C23.4664151,15.3903774 23.2645283,15.9711321 23.2645283,16.935283 C23.2645283,17.6973585 23.2645283,15.3109434 23.2645283,19.4883019 L27.0586792,19.4883019 L26.8935849,22.9849057 L23.2645283,22.9849057 L23.2645283,32.6960377 L19.5677358,32.6960377 L19.5677358,32.6958491 Z" fill="#5E6573"></path>
							</g>
						</g>
					</g>
				</g>
			</g>
		</g>
	</g>
</svg>