<svg width="59px" height="59px" viewBox="0 0 59 59" version="1.1" xmlns="http://www.w3.org/2000/svg" xmlns:xlink="http://www.w3.org/1999/xlink">
    <!-- Generator: Sketch 44.1 (41455) - http://www.bohemiancoding.com/sketch -->
    <title>Icon_tools_outline</title>
    <desc>Created with Sketch.</desc>
    <defs></defs>
    <g stroke="none" stroke-width="1" fill="none" fill-rule="evenodd">
        <g transform="translate(-443.000000, -20.000000)" stroke="#00A335">
            <g id="assistencia___JGgaWX0x">
                <g transform="translate(444.000000, 21.000000)">
                    <g id="Icon_tools_outline___JGgaWX0x">
                        <circle stroke-width="1.1" fill="#FFFFFF" cx="28.5" cy="28.5" r="28.5"></circle>
                        <g transform="translate(17.000000, 16.000000)" stroke-linecap="round" stroke-linejoin="round">
                            <g id="icon___JGgaWX0x">
                                <path d="M19.7392998,7.88135414 L15.7919314,7.88135414 L15.7919314,3.93398571 L19.331405,0.39451203 C17.5025224,-0.296087619 15.4537392,-0.0711615338 13.8182471,0.999775188 C12.8846978,1.56092307 12.1030792,2.3425416 11.5419314,3.27609098 C10.4534063,4.9248232 10.2279863,6.99770729 10.9366682,8.84188045 L0.818247144,18.9076699 C0.294367449,19.4308973 5.84327908e-16,20.1409375 0,20.8813541 C-5.84327908e-16,21.6217708 0.294367449,22.331811 0.818247144,22.8550383 L0.818247144,22.8550383 C1.34147449,23.378918 2.05151472,23.6732855 2.79193135,23.6732855 C3.53234799,23.6732855 4.24238822,23.378918 4.76561557,22.8550383 L14.8840366,12.7366173 C16.7129193,13.4272169 18.7617025,13.2022909 20.3971945,12.1313541 C21.3307439,11.5702063 22.1123624,10.7885877 22.6735103,9.85503835 C23.7620353,8.20630612 23.9874553,6.13342204 23.2787735,4.28924887 L19.7392998,7.88135414 Z" stroke-width="1.1"></path>
                                <path d="M17.2631579,13 L23.0263158,18.7631579 C23.5501955,19.2863852 23.8445629,19.9964255 23.8445629,20.7368421 C23.8445629,21.4772587 23.5501955,22.187299 23.0263158,22.7105263 L23.0263158,22.7105263 C22.5030884,23.234406 21.7930482,23.5287735 21.0526316,23.5287735 C20.3122149,23.5287735 19.6021747,23.234406 19.0789474,22.7105263 L12,15.6315789" id="Shape___JGgaWX0x"></path>
                                <polyline points="8.22368421 11.1973684 2.30263158 5.27631579 1.31578947 6.26315789 0 2.31578947 1.31578947 1 5.26315789 2.31578947 4.27631579 3.30263158 10.1973684 9.22368421"></polyline>
                            </g>
                        </g>
                    </g>
                </g>
            </g>
        </g>
    </g>
</svg>