<svg width="46px" height="46px" viewBox="0 0 46 46" version="1.1" xmlns="http://www.w3.org/2000/svg" xmlns:xlink="http://www.w3.org/1999/xlink">
<!-- Generator: Sketch 44.1 (41455) - http://www.bohemiancoding.com/sketch-->
<title>Icons/Social/icon_instagram</title>
<desc>Created with Sketch.</desc>
<defs></defs>
<g id="Symbols___F3A5WTT3" stroke="none" stroke-width="1" fill="none" fill-rule="evenodd">
	<g id="Footer/footer_desktop___F3A5WTT3" transform="translate(-1139.000000, -318.000000)">
		<g id="footer___F3A5WTT3">
			<g id="redes-sociais___F3A5WTT3" transform="translate(1139.000000, 87.000000)">
				<g id="Instagram___F3A5WTT3" transform="translate(1.000000, 232.000000)">
					<g id="Assets/Icons/Social/icon_instagram___F3A5WTT3">
						<g id="icon_instagram___F3A5WTT3">
							<path id="Instagram___F3A5WTT3" d="M22.5000189,13 C25.0800451,13 25.4035618,13.010936 26.4168379,13.0571688 C27.4280021,13.1032885 28.118591,13.2638967 28.722861,13.4987566 C29.34757,13.7414978 29.8773621,14.0663344 30.4055327,14.5944673 C30.9336656,15.1226379 31.2585022,15.65243 31.5012812,16.277139 C31.7361033,16.881409 31.8967115,17.5719979 31.9428312,18.5831621 C31.989064,19.5964382 32,19.9199549 32,22.5000189 C32,25.0800451 31.989064,25.4035618 31.9428312,26.4168379 C31.8967115,27.4280021 31.7361033,28.118591 31.5012812,28.722861 C31.2585022,29.34757 30.9336656,29.8773621 30.4055327,30.4055327 C29.8773621,30.9336656 29.34757,31.2585022 28.722861,31.5012812 C28.118591,31.7361033 27.4280021,31.8967115 26.4168379,31.9428312 C25.4035618,31.989064 25.0800451,32 22.5000189,32 C19.9199549,32 19.5964382,31.989064 18.5831621,31.9428312 C17.5719979,31.8967115 16.881409,31.7361033 16.277139,31.5012812 C15.65243,31.2585022 15.1226379,30.9336656 14.5944673,30.4055327 C14.0663344,29.8773621 13.7414978,29.34757 13.4987566,28.722861 C13.2638967,28.118591 13.1032885,27.4280021 13.0571688,26.4168379 C13.010936,25.4035618 13,25.0800451 13,22.5000189 C13,19.9199549 13.010936,19.5964382 13.0571688,18.5831621 C13.1032885,17.5719979 13.2638967,16.881409 13.4987566,16.277139 C13.7414978,15.65243 14.0663344,15.1226379 14.5944673,14.5944673 C15.1226379,14.0663344 15.65243,13.7414978 16.277139,13.4987566 C16.881409,13.2638967 17.5719979,13.1032885 18.5831621,13.0571688 C19.5964382,13.010936 19.9199549,13 22.5000189,13 Z M22.5000189,14.7117087 C19.9633972,14.7117087 19.6629214,14.7214002 18.6611848,14.7671051 C17.7349442,14.8093406 17.2319263,14.9641038 16.8971719,15.0942043 C16.4537364,15.2665404 16.1372715,15.472401 15.8048551,15.8048551 C15.472401,16.1372715 15.2665404,16.4537364 15.0942043,16.8971719 C14.9641038,17.2319263 14.8093406,17.7349442 14.7671051,18.6611848 C14.7214002,19.6629214 14.7117087,19.9633972 14.7117087,22.5000189 C14.7117087,25.0366028 14.7214002,25.3370786 14.7671051,26.3388152 C14.8093406,27.2650558 14.9641038,27.7680737 15.0942043,28.1028281 C15.2665404,28.5462636 15.4724387,28.8627285 15.8048551,29.1951449 C16.1372715,29.527599 16.4537364,29.7334596 16.8971719,29.9057957 C17.2319263,30.0358962 17.7349442,30.1906594 18.6611848,30.2328949 C19.6628083,30.2785998 19.9632086,30.2882913 22.5000189,30.2882913 C25.0367914,30.2882913 25.3372294,30.2785998 26.3388152,30.2328949 C27.2650558,30.1906594 27.7680737,30.0358962 28.1028281,29.9057957 C28.5462636,29.7334596 28.8627285,29.527599 29.1951449,29.1951449 C29.527599,28.8627285 29.7334596,28.5462636 29.9057957,28.1028281 C30.0358962,27.7680737 30.1906594,27.2650558 30.2328949,26.3388152 C30.2785998,25.3370786 30.2882913,25.0366028 30.2882913,22.5000189 C30.2882913,19.9633972 30.2785998,19.6629214 30.2328949,18.6611848 C30.1906594,17.7349442 30.0358962,17.2319263 29.9057957,16.8971719 C29.7334596,16.4537364 29.527599,16.1372715 29.1951449,15.8048551 C28.8627285,15.472401 28.5462636,15.2665404 28.1028281,15.0942043 C27.7680737,14.9641038 27.2650558,14.8093406 26.3388152,14.7671051 C25.3370786,14.7214002 25.0366028,14.7117087 22.5000189,14.7117087 Z M22.5000189,17.6216247 C25.1942696,17.6216247 27.3783753,19.8057304 27.3783753,22.5000189 C27.3783753,25.1942696 25.1942696,27.3783753 22.5000189,27.3783753 C19.8057304,27.3783753 17.6216247,25.1942696 17.6216247,22.5000189 C17.6216247,19.8057304 19.8057304,17.6216247 22.5000189,17.6216247 Z M22.5000189,25.6666667 C24.2489099,25.6666667 25.6666667,24.2489099 25.6666667,22.5000189 C25.6666667,20.7510901 24.2489099,19.3333333 22.5000189,19.3333333 C20.7510901,19.3333333 19.3333333,20.7510901 19.3333333,22.5000189 C19.3333333,24.2489099 20.7510901,25.6666667 22.5000189,25.6666667 Z M28.7111331,17.4288873 C28.7111331,18.0584986 28.200724,18.5688699 27.5711127,18.5688699 C26.9415391,18.5688699 26.4311301,18.0584986 26.4311301,17.4288873 C26.4311301,16.799276 26.9415391,16.2888669 27.5711127,16.2888669 C28.200724,16.2888669 28.7111331,16.799276 28.7111331,17.4288873 Z" fill="#5E6573"></path>
						</g>
					</g>
				</g>
			</g>
		</g>
	</g>
</g>
</svg>