<svg width="46px" height="46px" viewBox="0 0 46 46" version="1.1" xmlns="http://www.w3.org/2000/svg" xmlns:xlink="http://www.w3.org/1999/xlink">
<!-- Generator: Sketch 44.1 (41455) - http://www.bohemiancoding.com/sketch-->
<title>Icons/Social/icon_linkedin</title>
<desc>Created with Sketch.</desc>
<defs></defs>
<g id="Symbols___EE8wgzYw" stroke="none" stroke-width="1" fill="none" fill-rule="evenodd">
<g id="Footer/footer_desktop___EE8wgzYw" transform="translate(-1139.000000, -258.000000)">
	<g id="footer___EE8wgzYw">
		<g id="redes-sociais___EE8wgzYw" transform="translate(1139.000000, 87.000000)">
			<g id="linkedin___EE8wgzYw" transform="translate(1.000000, 172.000000)">
				<g id="Assets/Icons/Social/icon_linkedin___EE8wgzYw">
					<g id="Icon/Social/icon_linkedin___EE8wgzYw">
						<g id="icon_linkedin___EE8wgzYw" transform="translate(13.000000, 11.000000)" fill="#5E6573">
							<polygon id="Path___EE8wgzYw" points="4.31185106 18.0403947 0.463086287 18.0403947 0.463086287 6.09220667 4.31185106 6.09220667"></polygon>
							<path id="Path___EE8wgzYw" d="M2.38772646,4.46003067 L2.36194773,4.46003067 C1.0709488,4.46003067 0.235717866,3.54233067 0.235717866,2.39587067 C0.235717866,1.22387467 1.09672753,0.331710667 2.41298962,0.331710667 C3.72976728,0.331710667 4.53973505,1.22387467 4.56551378,2.39587067 C4.56551378,3.54233067 3.7292517,4.46003067 2.38772646,4.46003067 L2.38772646,4.46003067 Z"></path>
							<path id="Path___EE8wgzYw" d="M18.1906051,18.0403947 L14.3418403,18.0403947 L14.3418403,11.6468187 C14.3418403,10.0412427 13.7850197,8.94532267 12.3924526,8.94532267 C11.3293376,8.94532267 10.696212,9.68427067 10.4172861,10.3982147 C10.3157179,10.6530427 10.2909703,11.0094827 10.2909703,11.3669867 L10.2909703,18.0398627 L6.44220551,18.0398627 C6.44220551,18.0398627 6.49273183,7.21153467 6.44220551,6.09167467 L10.2909703,6.09167467 L10.2909703,7.78290267 C10.8024203,6.96894267 11.7170498,5.80971467 13.7602721,5.80971467 C16.2922592,5.80971467 18.1911207,7.51796667 18.1911207,11.1882347 L18.1911207,18.0403947 L18.1906051,18.0403947 Z"></path>
						</g>
					</g>
				</g>
			</g>
		</g>
	</g>
</g>
</g>
</svg>