<svg width="59px" height="59px" viewBox="0 0 59 59" version="1.1" xmlns="http://www.w3.org/2000/svg" xmlns:xlink="http://www.w3.org/1999/xlink">
    <!-- Generator: Sketch 44.1 (41455) - http://www.bohemiancoding.com/sketch -->
    <title>Group 2</title>
    <desc>Created with Sketch.</desc>
    <defs></defs>
    <g stroke="none" stroke-width="1" fill="none" fill-rule="evenodd">
        <g transform="translate(-120.000000, -456.000000)">
            <g transform="translate(0.000000, 124.000000)">
                <g transform="translate(120.000000, 333.000000)">
                    <g transform="translate(1.000000, 0.000000)">
                        <g id="Group-2___RhDASR9i">
                            <g id="Icon_newsletter_outline___RhDASR9i">
                                <circle stroke="#00A335" stroke-width="1.1" fill="#FFFFFF" cx="28.5" cy="28.5" r="28.5"></circle>
                                <g transform="translate(14.000000, 16.000000)" fill="#00A335">
                                    <path d="M4.99999974,0 C3.62668731,0 2.49999986,1.15557692 2.49999986,2.56410256 C2.49999986,2.91814103 2.77981235,3.20512821 3.12499983,3.20512821 C3.47018731,3.20512821 3.7499998,2.91814103 3.7499998,2.56410256 C3.7499998,1.84846154 4.30224978,1.28205128 4.99999974,1.28205128 L24.9999988,1.28205128 C25.6977488,1.28205128 26.2499988,1.84846154 26.2499988,2.56410256 C26.2499988,2.91814103 26.5298112,3.20512821 26.8749987,3.20512821 C27.2201862,3.20512821 27.4999987,2.91814103 27.4999987,2.56410256 C27.4999987,1.15557692 26.3733113,0 24.9999988,0 L4.99999974,0 Z M2.49999986,4.48717949 C1.12668749,4.48717949 0,5.64276282 0,7.05128205 L0,22.4358974 C0,23.8444167 1.12668749,25 2.49999986,25 L27.4999987,25 C28.8733111,25 29.9999986,23.8444167 29.9999986,22.4358974 L29.9999986,7.05128205 C29.9999986,5.64276282 28.8733111,4.48717949 27.4999987,4.48717949 L2.49999986,4.48717949 Z M2.49999986,5.76923077 L27.4999987,5.76923077 C28.1977487,5.76923077 28.7499986,6.33563462 28.7499986,7.05128205 L28.7499986,22.4358974 C28.7499986,23.1515449 28.1977487,23.7179487 27.4999987,23.7179487 L2.49999986,23.7179487 C1.80224989,23.7179487 1.24999998,23.1515449 1.24999998,22.4358974 L1.24999998,7.05128205 C1.24999998,6.33563462 1.80224989,5.76923077 2.49999986,5.76923077 Z M4.38354352,8.33333333 C4.21479353,8.33076923 4.05235604,8.39874359 3.93310604,8.52113462 C3.68910605,8.77146154 3.68910605,9.17725641 3.93310604,9.42758333 L13.3349369,17.7884615 C14.2948118,18.6419487 15.7138117,18.6334808 16.6723742,17.7809615 L26.0668738,9.42759615 C26.3108738,9.17726923 26.3108738,8.77146795 26.0668738,8.52114744 C25.8228113,8.27087179 25.4271863,8.27087179 25.1831238,8.52114744 L15.8373742,16.8269231 C15.3555618,17.2551731 14.6499368,17.260359 14.1650618,16.8294872 L4.8168935,8.52119231 C4.70183101,8.40312179 4.54629351,8.33571795 4.38354352,8.33339103 L4.38354352,8.33333333 Z" id="Shape___RhDASR9i"></path>
                                </g>
                            </g>
                        </g>
                    </g>
                </g>
            </g>
        </g>
    </g>
</svg>