<svg width="59px" height="59px" viewBox="0 0 59 59" version="1.1" xmlns="http://www.w3.org/2000/svg" xmlns:xlink="http://www.w3.org/1999/xlink">
    <!-- Generator: Sketch 44.1 (41455) - http://www.bohemiancoding.com/sketch -->
    <title>Group 5</title>
    <desc>Created with Sketch.</desc>
    <defs></defs>
    <g stroke="none" stroke-width="1" fill="none" fill-rule="evenodd">
        <g transform="translate(-1091.000000, -877.000000)">
            <g transform="translate(0.000000, 449.000000)">
                <g transform="translate(1092.000000, 427.000000)">
                    <g transform="translate(0.000000, 2.000000)">
                        <g id="Group-5___0Pcpgs0f">
                            <circle stroke="#00A335" stroke-width="1.1" cx="28.5" cy="28.5" r="28.5"></circle>
                            <path d="M28.1296296,15.6521164 C23.4552593,15.6521164 19.6521164,19.4552593 19.6521164,24.1296296 C19.6521164,24.4895979 19.9442646,24.781746 20.3042328,24.781746 C20.6642011,24.781746 20.9563492,24.4895979 20.9563492,24.1296296 C20.9563492,20.1738915 24.1738915,16.9563492 28.1296296,16.9563492 C32.0840635,16.9563492 35.3029101,20.1738915 35.3029101,24.1296296 C35.3029101,28.0853677 32.0840635,31.3029101 28.1296296,31.3029101 C27.7696614,31.3029101 27.4775132,31.5950582 27.4775132,31.9550265 L27.4775132,37.1719577 C27.4775132,37.5319259 27.7696614,37.8240741 28.1296296,37.8240741 C28.4895979,37.8240741 28.781746,37.5319259 28.781746,37.1719577 L28.781746,32.5823624 C33.1535344,32.2484788 36.6071429,28.5848889 36.6071429,24.1296296 C36.6071429,19.4552593 32.804,15.6521164 28.1296296,15.6521164 Z" stroke="#00A335" stroke-width="0.1" fill="#00A335" fill-rule="nonzero"></path>
                            <circle fill="#00A335" fill-rule="nonzero" cx="28.5515873" cy="41.6574074" r="1.07407407"></circle>
                        </g>
                    </g>
                </g>
            </g>
        </g>
    </g>
</svg>