<svg width="59px" height="59px" viewBox="0 0 59 59" version="1.1" xmlns="http://www.w3.org/2000/svg" xmlns:xlink="http://www.w3.org/1999/xlink">
    <!-- Generator: Sketch 44.1 (41455) - http://www.bohemiancoding.com/sketch -->
    <title>Group 4</title>
    <desc>Created with Sketch.</desc>
    <defs></defs>
    <g stroke="none" stroke-width="1" fill="none" fill-rule="evenodd">
        <g transform="translate(-591.000000, -877.000000)" stroke="#00A335">
            <g transform="translate(0.000000, 449.000000)">
                <g transform="translate(592.000000, 427.000000)">
                    <g transform="translate(0.000000, 2.000000)">
                        <g id="Group-4___PpkavoNH">
                            <circle stroke-width="1.1" cx="28.5" cy="28.5" r="28.5"></circle>
                            <path d="M21.61403,15.119 L32.7637301,15.119 L34.6069125,17.4294286 C34.6841432,17.525 34.7963219,17.5747143 34.9106579,17.5747143 C34.9947919,17.5747143 35.0797889,17.5481429 35.1514106,17.4911429 C35.3192472,17.3595714 35.3472919,17.1178571 35.2144033,16.952 L33.13694,14.3505714 L21.61403,14.3505714 C21.3995961,14.3505714 21.226582,14.522 21.226582,14.7345714 C21.226582,14.9471429 21.3995961,15.119 21.61403,15.119 Z" stroke-width="0.2" fill="#00A335" fill-rule="nonzero"></path>
                            <path d="M43.5889749,33.344 C43.5712852,33.3092857 43.5518696,33.2745714 43.5229621,33.2458571 L32.5143482,22.3091429 L32.2692809,22.7655714 C31.732549,23.7577143 30.7246665,25.1141429 30.2064871,25.1141429 L30.1913862,25.1141429 C29.7547521,25.0815714 27.1919002,24.4575714 26.3199266,24.0611429 C28.8875245,22.2105714 31.1535343,19.3734286 31.6932864,18.6752857 L40.0428335,18.6752857 L42.8300428,21.2797143 C42.9853672,21.425 43.2304345,21.4181429 43.3766983,21.2638571 C43.5233935,21.1087143 43.5160588,20.8657143 43.3603029,20.72 L40.3495991,17.906 L31.3075643,17.906 L31.1906395,18.0607143 C31.1638892,18.0967143 28.4733262,21.665 25.570918,23.6462857 C25.3789198,23.7782857 25.2956487,23.9878571 25.3547583,24.1952857 C25.6050031,25.0777143 30.1046634,25.8787143 30.1473776,25.8812857 C30.1646359,25.8817143 30.1810312,25.8825714 30.1991524,25.8825714 C31.1694982,25.8825714 32.2002479,24.3954286 32.6942656,23.5755714 L42.9767381,33.7884286 C42.9827785,33.7952857 42.9914076,33.7974286 42.9983109,33.8025714 C43.2520073,34.1008571 43.4017228,34.4642857 43.4120777,34.8474286 C43.4224327,35.273 43.2675398,35.6681429 42.9745808,35.9582857 C42.6820532,36.2497143 42.2795043,36.3958571 41.855814,36.3932857 C41.4955477,36.3842857 41.1534027,36.254 40.8647583,36.032 C40.7888219,35.9274286 40.7111597,35.8241429 40.6162393,35.7298571 L34.4986169,29.6527143 L33.9506671,30.1961429 L39.4633874,35.6715714 L39.4344798,35.7002857 L40.1537179,36.4151429 C40.1847827,36.4464286 40.221888,36.4678571 40.2542472,36.4974286 C40.4475398,36.7721429 40.5549725,37.0961429 40.5549725,37.4381429 C40.5549725,37.8774286 40.3819584,38.2918571 40.0691524,38.603 C39.427145,39.2407143 38.3886291,39.2437143 37.7397185,38.6167143 C37.734541,38.6115714 37.7315208,38.606 37.7267748,38.6004286 L31.6087209,32.5241429 L31.061634,33.0675714 L35.3969094,37.3742857 L35.3943207,37.3768571 L37.1762362,39.1468571 C37.1809823,39.1515714 37.1865912,39.1545714 37.1913372,39.1584286 C37.4959455,39.4682857 37.665508,39.8758571 37.665508,40.31 C37.665508,40.7492857 37.4924939,41.1637143 37.1796879,41.4748571 C36.5325031,42.1172857 35.480612,42.1172857 34.8334272,41.4748571 L33.0644553,39.7177143 C32.9742809,39.5792857 32.8690055,39.4481429 32.7473348,39.3272857 L29.8324143,36.4322857 L29.2853274,36.9761429 L32.2002479,39.8707143 C32.5121909,40.1818571 32.685205,40.5954286 32.685205,41.0364286 C32.685205,41.4757143 32.5121909,41.8897143 32.2002479,42.2004286 C31.5526316,42.8437143 30.501172,42.8437143 29.8539871,42.2004286 L27.5198072,39.8827143 L27.9197674,39.485 C28.281328,39.1267143 28.479798,38.6501429 28.479798,38.1427143 C28.479798,37.6352857 28.281328,37.1578571 27.9197674,36.7995714 C27.5789168,36.4614286 27.1189841,36.2882857 26.6521481,36.269 L27.4900367,35.4367143 C27.9538525,34.9768571 28.2191983,34.3747143 28.2407711,33.7425714 C28.2619125,33.1001429 28.0284945,32.5022857 27.5832313,32.0612857 C27.0926652,31.5731429 26.3768788,31.3824286 25.6779192,31.4621429 C25.7508354,31.2358571 25.7987271,31.0005714 25.7987271,30.7558571 C25.7987271,30.1361429 25.5553856,29.5528571 25.1140055,29.1144286 C24.4133201,28.4188571 23.3031824,28.2847143 22.4320716,28.6935714 C22.4204223,28.091 22.1822583,27.5244286 21.7516646,27.0967143 C20.8684731,26.2194286 19.3281732,26.2202857 18.4467075,27.0967143 L16.540101,28.991 L13.8603244,26.33 C13.7093146,26.18 13.4646787,26.18 13.3136689,26.33 C13.1622277,26.48 13.1622277,26.7234286 13.3136689,26.8734286 L15.9930141,29.5348571 L15.2953488,30.2278571 C14.8539688,30.6658571 14.6106273,31.2487143 14.6106273,31.8688571 C14.6106273,32.4885714 14.8539688,33.0718571 15.2953488,33.5102857 C15.7367289,33.9487143 16.3235098,34.1895714 16.947396,34.1895714 C17.0828733,34.1895714 17.2157619,34.1732857 17.3469247,34.151 C17.324489,34.2817143 17.3080936,34.4137143 17.3080936,34.5487143 C17.3080936,35.168 17.5518666,35.7508571 17.9932466,36.1888571 C18.4346267,36.6272857 19.0205447,36.8694286 19.6452938,36.8694286 C19.8066585,36.8694286 19.9654345,36.8522857 20.119896,36.8205714 C19.9813984,37.5547143 20.1777111,38.3235714 20.7291126,38.8708571 C21.1536659,39.2925714 21.7262087,39.5244286 22.3423286,39.5244286 C22.6775704,39.5244286 23.0110863,39.4515714 23.3213035,39.3191429 C23.2738433,39.8595714 23.4485832,40.4167143 23.8640759,40.8285714 C24.2256365,41.1868571 24.7054162,41.3848571 25.2171236,41.3848571 C25.7279682,41.3848571 26.2077479,41.1868571 26.5697399,40.8285714 L26.9740147,40.4265714 L29.3073317,42.7442857 C29.7672644,43.2011429 30.3773439,43.4527143 31.0279804,43.4527143 C31.6773225,43.4527143 32.2878335,43.2011429 32.7477662,42.7442857 C33.1844002,42.3105714 33.4104835,41.7512857 33.445,41.1817143 L34.2867717,42.0182857 C34.7462729,42.4751429 35.3572154,42.7262857 36.0065575,42.7262857 C36.6567625,42.7262857 37.267705,42.4751429 37.7276377,42.0182857 C38.3329712,41.4161429 38.5474051,40.5731429 38.3791371,39.797 C38.5478366,39.833 38.7204192,39.8552857 38.8968849,39.8552857 C39.54709,39.8552857 40.1580324,39.6041429 40.6166707,39.1472857 C41.1900765,38.5781429 41.4105508,37.7942857 41.2910373,37.0545714 C41.4916646,37.106 41.6948807,37.1415714 41.8980967,37.1415714 C42.4874663,37.1415714 43.0690698,36.9242857 43.5078611,36.4884286 C44.3565361,35.6458571 44.3699113,34.2847143 43.5889749,33.344 Z M15.8424357,32.9655714 C15.5464565,32.672 15.3842289,32.2824286 15.3842289,31.8675714 C15.3842289,31.4531429 15.5464565,31.0635714 15.8424357,30.77 L18.9942258,27.6384286 C19.290205,27.3457143 19.6819676,27.1837143 20.0996175,27.1837143 C20.516836,27.1837143 20.9085985,27.3457143 21.2045777,27.6384286 C21.5001255,27.932 21.6623531,28.3215714 21.6623531,28.7364286 C21.6623531,28.982 21.5993605,29.2155714 21.4914963,29.429 L17.9932466,32.9042857 C17.9065239,32.9904286 17.8340392,33.086 17.7628488,33.1828571 C17.1648501,33.5342857 16.3455141,33.4652857 15.8424357,32.9655714 Z M18.5399021,35.645 C18.2443543,35.351 18.0816952,34.9618571 18.0816952,34.5474286 C18.0816952,34.2594286 18.1649663,33.9851429 18.3116616,33.7451429 C18.4121909,33.6731429 18.5109945,33.5977143 18.6007375,33.509 L21.7520961,30.3787143 C21.896634,30.2351429 22.0114015,30.071 22.1119308,29.9008571 L22.3565667,29.6574286 C22.6521144,29.3638571 23.0443084,29.2027143 23.4619584,29.2027143 C23.8791769,29.2027143 24.2709394,29.3638571 24.5669186,29.6574286 C24.8624663,29.9514286 25.0251255,30.341 25.0251255,30.755 C25.0251255,31.1642857 24.865918,31.5487143 24.5781365,31.8401429 C24.4379131,31.9301429 24.3058874,32.033 24.1850796,32.153 L20.8214443,35.4941429 C20.7329957,35.582 20.660511,35.6788571 20.5875949,35.7748571 C19.9852815,36.2214286 19.08138,36.1828571 18.5399021,35.645 Z M21.2757681,38.3261429 C20.7472338,37.8011429 20.7101285,36.959 21.1407222,36.3161429 C21.1929284,36.2728571 21.2494492,36.2364286 21.2982038,36.188 L25.074743,32.4367143 C25.347855,32.2717143 25.6576408,32.1757143 25.9704468,32.1757143 C26.379899,32.1757143 26.7587179,32.3274286 27.0365759,32.6042857 C27.328672,32.8948571 27.481839,33.2891429 27.4671695,33.7164286 C27.4533629,34.154 27.2678366,34.5718571 26.9438127,34.8928571 L23.579746,38.2348571 C22.9429162,38.8648571 21.8603917,38.9077143 21.2757681,38.3261429 Z M26.0209272,40.2838571 C25.5911965,40.7102857 24.8391677,40.7094286 24.4107313,40.2838571 C23.9667625,39.8437143 23.9667625,39.1258571 24.4107313,38.684 L25.7616218,37.3425714 C25.9773501,37.1287143 26.2629743,37.0108571 26.5667197,37.0108571 C26.871328,37.0108571 27.1569523,37.1287143 27.3722491,37.3425714 C27.8162179,37.7827143 27.8162179,38.5018571 27.3722491,38.9415714 L26.0209272,40.2838571 Z" stroke-width="0.2" fill="#00A335" fill-rule="nonzero"></path>
                        </g>
                    </g>
                </g>
            </g>
        </g>
    </g>
</svg>