<svg width="46px" height="46px" viewBox="0 0 46 46" version="1.1" xmlns="http://www.w3.org/2000/svg" xmlns:xlink="http://www.w3.org/1999/xlink">
	<!-- Generator: Sketch 44.1 (41455) - http://www.bohemiancoding.com/sketch-->
	<title>Icons/Social/icon_twitter</title>
	<desc>Created with Sketch.</desc>
	<defs></defs>
	<g id="Symbols___sJSLPHWR" stroke="none" stroke-width="1" fill="none" fill-rule="evenodd">
		<g id="Footer/footer_desktop___sJSLPHWR" transform="translate(-1139.000000, -378.000000)">
			<g id="footer___sJSLPHWR">
				<g id="redes-sociais___sJSLPHWR" transform="translate(1139.000000, 87.000000)">
					<g id="twitter___sJSLPHWR" transform="translate(1.000000, 292.000000)">
						<g id="Assets/Icons/Social/icon_twitter___sJSLPHWR">
							<g id="Icons/social/icon_twitter___sJSLPHWR">
								<path id="icon_footer_twitter___sJSLPHWR" d="M32,15.8743831 C31.3018724,16.1923077 30.5502142,16.4073071 29.7617538,16.5033707 C30.5669425,16.0093295 31.1847743,15.225954 31.4758467,14.2927651 C30.7219581,14.7502107 29.8888889,15.0830023 28.9989435,15.261406 C28.2896637,14.4848923 27.2759289,14 26.1540177,14 C24.0027587,14 22.2574397,15.7897556 22.2574397,17.9969303 C22.2574397,18.3102805 22.2908963,18.6144818 22.3578095,18.9072469 C19.1180959,18.7402793 16.2464049,17.1506561 14.3226507,14.7296256 C13.9869695,15.3220176 13.7951517,16.0093295 13.7951517,16.7412423 C13.7951517,18.1273023 14.4832424,19.3509691 15.5293185,20.0680149 C14.8914128,20.0485735 14.2891941,19.8667389 13.7628104,19.5693993 L13.7628104,19.6185747 C13.7628104,21.5558565 15.1066502,23.1717828 16.8910019,23.5377393 C16.5642425,23.6315156 16.2196396,23.6784038 15.8638845,23.6784038 C15.61296,23.6784038 15.3676117,23.6543879 15.1300698,23.6074997 C15.6263427,25.1948357 17.0649762,26.3510293 18.7712625,26.3819068 C17.4374596,27.4546166 15.7557082,28.0938967 13.9300933,28.0938967 C13.6156013,28.0938967 13.304455,28.0755989 13,28.0390033 C14.7252451,29.1711809 16.7750191,29.8333333 18.9753478,29.8333333 C26.1462112,29.8333333 30.0662088,23.7435897 30.0662088,18.4612375 C30.0662088,18.2874082 30.0628632,18.1135789 30.0561719,17.9431805 C30.817867,17.3793788 31.4791923,16.6760563 32,15.8743831" fill="#5E6573"></path>
							</g>
						</g>
					</g>
				</g>
			</g>
		</g>
	</g>
</svg>