<svg width="46px" height="46px" viewBox="0 0 46 46" version="1.1" xmlns="http://www.w3.org/2000/svg" xmlns:xlink="http://www.w3.org/1999/xlink">
	<!-- Generator: Sketch 44.1 (41455) - http://www.bohemiancoding.com/sketch-->
	<title>Icons/Social/icon_youtube</title>
	<desc>Created with Sketch.</desc>
	<defs></defs>
	<g id="Symbols___3YppPuby" stroke="none" stroke-width="1" fill="none" fill-rule="evenodd">
		<g id="Footer/footer_desktop___3YppPuby" transform="translate(-1139.000000, -198.000000)">
			<g id="footer___3YppPuby">
				<g id="redes-sociais___3YppPuby" transform="translate(1139.000000, 87.000000)">
					<g id="youtube___3YppPuby" transform="translate(1.000000, 112.000000)">
						<g id="Assets/Icons/Social/icon_youtube___3YppPuby">
							<g id="Icon/Social/icon_youtube___3YppPuby">
								<path id="Youtube___3YppPuby" d="M20.53825,24.5817301 L20.5376563,18.9890701 L25.6712188,21.7950415 L20.53825,24.5817301 Z M31.81,18.0199493 C31.81,18.0199493 31.6241562,16.6483761 31.05475,16.0443862 C30.3321562,15.2512996 29.5222812,15.2475674 29.1511875,15.2015373 C26.492375,15 22.5041562,15 22.5041562,15 L22.4958437,15 C22.4958437,15 18.507625,15 15.8488125,15.2015373 C15.477125,15.2475674 14.6678437,15.2512996 13.9446562,16.0443862 C13.37525,16.6483761 13.19,18.0199493 13.19,18.0199493 C13.19,18.0199493 13,19.6310037 13,21.241436 L13,22.7517217 C13,24.362776 13.19,25.9732083 13.19,25.9732083 C13.19,25.9732083 13.37525,27.3447816 13.9446562,27.9487715 C14.6678437,28.7418581 15.61725,28.7169769 16.04,28.7997068 C17.56,28.9527258 22.5,29 22.5,29 C22.5,29 26.492375,28.9937797 29.1511875,28.7922424 C29.5222812,28.7455903 30.3321562,28.7418581 31.05475,27.9487715 C31.6241562,27.3447816 31.81,25.9732083 31.81,25.9732083 C31.81,25.9732083 32,24.362776 32,22.7517217 L32,21.241436 C32,19.6310037 31.81,18.0199493 31.81,18.0199493 L31.81,18.0199493 Z" fill="#5E6573"></path>
							</g>
						</g>
					</g>
				</g>
			</g>
		</g>
	</g>
</svg>