<svg width="32px" height="32px" viewBox="0 0 32 32" version="1.1" xmlns="http://www.w3.org/2000/svg" xmlns:xlink="http://www.w3.org/1999/xlink">
    <!-- Generator: Sketch 44.1 (41455) - http://www.bohemiancoding.com/sketch -->
    <title>USA</title>
    <desc>Created with Sketch.</desc>
    <defs>
        <circle id="path-1___lA152YVC" cx="16" cy="16" r="16"></circle>
    </defs>
    <g id="Symbols___lA152YVC" stroke="none" stroke-width="1" fill="none" fill-rule="evenodd">
        <g id="USA___lA152YVC">
            <g>
                <mask id="mask-2___lA152YVC" fill="white">
                    <use xlink:href="#path-1___lA152YVC"></use>
                </mask>
                <use id="Oval-1___lA152YVC" fill="#FFFFFF" xlink:href="#path-1___lA152YVC"></use>
                <path d="M-6.5344,-0.9536 L16.4707556,-0.9536 L16.4707556,16.9450667 L-6.5344,16.9450667 L-6.5344,-0.9536 Z M-3.60746667,0.423111111 L-4.41102222,0.423111111 L-4.64142222,-0.265244444 L-4.87111111,0.423111111 L-5.67395556,0.423111111 L-5.04248889,0.8832 L-5.27217778,1.68533333 L-4.64142222,1.16906667 L-4.00995556,1.62773333 L-4.23964444,0.8832 L-3.60746667,0.423111111 L-3.60746667,0.423111111 Z M15.3813333,15.1665778 L14.6346667,15.1665778 L14.3480889,14.4782222 L14.1176889,15.1665778 L13.3731556,15.1665778 L14.0039111,15.6259556 L13.7166222,16.4288 L14.3480889,15.9125333 L14.9795556,16.4288 L14.7491556,15.6259556 L15.3813333,15.1665778 L15.3813333,15.1665778 Z M11.5953778,15.1665778 L10.7911111,15.1665778 L10.5621333,14.4782222 L10.3317333,15.1665778 L9.52888889,15.1665778 L10.1603556,15.6259556 L9.93066667,16.4288 L10.5621333,15.9125333 L11.1928889,16.4288 L10.9632,15.6259556 L11.5953778,15.1665778 L11.5953778,15.1665778 Z M7.7504,15.1665778 L7.00515556,15.1665778 L6.77546667,14.4782222 L6.54577778,15.1665778 L5.74293333,15.1665778 L6.3744,15.6259556 L6.08711111,16.4288 L6.77546667,15.9125333 L7.40622222,16.4288 L7.17653333,15.6259556 L7.7504,15.1665778 L7.7504,15.1665778 Z M3.96373333,15.1665778 L3.21777778,15.1665778 L2.9888,14.4782222 L2.70222222,15.1665778 L1.95626667,15.1665778 L2.58773333,15.6259556 L2.29973333,16.4288 L2.9888,15.9125333 L3.62026667,16.4288 L3.33297778,15.6259556 L3.96373333,15.1665778 L3.96373333,15.1665778 Z M0.177777778,15.1665778 L-0.568177778,15.1665778 L-0.854755556,14.4782222 L-1.08373333,15.1665778 L-1.82968889,15.1665778 L-1.19822222,15.6259556 L-1.48622222,16.4288 L-0.854755556,15.9125333 L-0.224,16.4288 L-0.452977778,15.6259556 L0.177777778,15.1665778 L0.177777778,15.1665778 Z M-3.60746667,15.1665778 L-4.41102222,15.1665778 L-4.64142222,14.4782222 L-4.87111111,15.1665778 L-5.67395556,15.1665778 L-5.04248889,15.6259556 L-5.27217778,16.4288 L-4.64142222,15.9125333 L-4.00995556,16.4288 L-4.23964444,15.6259556 L-3.60746667,15.1665778 L-3.60746667,15.1665778 Z M13.3731556,13.3312 L12.6272,13.3312 L12.3975111,12.6428444 L12.1678222,13.3312 L11.3642667,13.3312 L11.9957333,13.7912889 L11.7091556,14.5934222 L12.3975111,14.0771556 L13.0282667,14.5351111 L12.7409778,13.7912889 L13.3731556,13.3312 L13.3731556,13.3312 Z M9.58648889,13.3312 L8.84124444,13.3312 L8.55395556,12.6428444 L8.32497778,13.3312 L7.5776,13.3312 L8.20977778,13.7912889 L7.9232,14.5934222 L8.55395556,14.0771556 L9.18471111,14.5351111 L8.95502222,13.7912889 L9.58648889,13.3312 L9.58648889,13.3312 Z M5.79982222,13.3312 L4.99626667,13.3312 L4.768,12.6428444 L4.53831111,13.3312 L3.73475556,13.3312 L4.36622222,13.7912889 L4.13582222,14.5934222 L4.768,14.0771556 L5.39804444,14.5351111 L5.16906667,13.7912889 L5.79982222,13.3312 L5.79982222,13.3312 Z M2.01386667,13.3312 L1.21102222,13.3312 L0.981333333,12.6428444 L0.752355556,13.3312 L-0.0512,13.3312 L0.579555556,13.7912889 L0.349155556,14.5934222 L0.981333333,14.0771556 L1.61208889,14.5351111 L1.38168889,13.7912889 L2.01386667,13.3312 L2.01386667,13.3312 Z M-1.82968889,13.3312 L-2.57564444,13.3312 L-2.80462222,12.6428444 L-3.03502222,13.3312 L-3.83786667,13.3312 L-3.20711111,13.7912889 L-3.4944,14.5934222 L-2.80462222,14.0771556 L-2.17457778,14.5351111 L-2.46115556,13.7912889 L-1.82968889,13.3312 L-1.82968889,13.3312 Z M13.3731556,9.65973333 L12.6272,9.65973333 L12.3975111,8.97208889 L12.1678222,9.65973333 L11.3642667,9.65973333 L11.9957333,10.1191111 L11.7091556,10.8636444 L12.3975111,10.4056889 L13.0282667,10.8636444 L12.7409778,10.1191111 L13.3731556,9.65973333 L13.3731556,9.65973333 Z M9.58648889,9.65973333 L8.84124444,9.65973333 L8.55395556,8.97208889 L8.32497778,9.65973333 L7.5776,9.65973333 L8.20977778,10.1191111 L7.9232,10.8636444 L8.55395556,10.4056889 L9.18471111,10.8636444 L8.95502222,10.1191111 L9.58648889,9.65973333 L9.58648889,9.65973333 Z M5.79982222,9.65973333 L4.99626667,9.65973333 L4.768,8.97208889 L4.53831111,9.65973333 L3.73475556,9.65973333 L4.36622222,10.1191111 L4.13582222,10.8636444 L4.768,10.4056889 L5.39804444,10.8636444 L5.16906667,10.1191111 L5.79982222,9.65973333 L5.79982222,9.65973333 Z M2.01386667,9.65973333 L1.21102222,9.65973333 L0.981333333,8.97208889 L0.752355556,9.65973333 L-0.0512,9.65973333 L0.579555556,10.1191111 L0.349155556,10.8636444 L0.981333333,10.4056889 L1.61208889,10.8636444 L1.38168889,10.1191111 L2.01386667,9.65973333 L2.01386667,9.65973333 Z M-1.82968889,9.65973333 L-2.57564444,9.65973333 L-2.80462222,8.97208889 L-3.03502222,9.65973333 L-3.83786667,9.65973333 L-3.20711111,10.1191111 L-3.4944,10.8636444 L-2.80462222,10.4056889 L-2.17457778,10.8636444 L-2.46115556,10.1191111 L-1.82968889,9.65973333 L-1.82968889,9.65973333 Z M13.3731556,5.98826667 L12.6272,5.98826667 L12.3975111,5.24231111 L12.1678222,5.98826667 L11.3642667,5.98826667 L11.9957333,6.44622222 L11.7091556,7.19288889 L12.3975111,6.73422222 L13.0282667,7.19288889 L12.7409778,6.44622222 L13.3731556,5.98826667 L13.3731556,5.98826667 Z M9.58648889,5.98826667 L8.84124444,5.98826667 L8.55395556,5.24231111 L8.32497778,5.98826667 L7.5776,5.98826667 L8.20977778,6.44622222 L7.9232,7.19288889 L8.55395556,6.73422222 L9.18471111,7.19288889 L8.95502222,6.44622222 L9.58648889,5.98826667 L9.58648889,5.98826667 Z M5.79982222,5.98826667 L4.99626667,5.98826667 L4.768,5.24231111 L4.53831111,5.98826667 L3.73475556,5.98826667 L4.36622222,6.44622222 L4.13582222,7.19288889 L4.768,6.73422222 L5.39804444,7.19288889 L5.16906667,6.44622222 L5.79982222,5.98826667 L5.79982222,5.98826667 Z M2.01386667,5.98826667 L1.21102222,5.98826667 L0.981333333,5.24231111 L0.752355556,5.98826667 L-0.0512,5.98826667 L0.579555556,6.44622222 L0.349155556,7.19288889 L0.981333333,6.73422222 L1.61208889,7.19288889 L1.38168889,6.44622222 L2.01386667,5.98826667 L2.01386667,5.98826667 Z M-1.82968889,5.98826667 L-2.57564444,5.98826667 L-2.80462222,5.24231111 L-3.03502222,5.98826667 L-3.83786667,5.98826667 L-3.20711111,6.44622222 L-3.4944,7.19288889 L-2.80462222,6.73422222 L-2.17457778,7.19288889 L-2.46115556,6.44622222 L-1.82968889,5.98826667 L-1.82968889,5.98826667 Z M13.3731556,2.25848889 L12.6272,2.25848889 L12.3975111,1.57084444 L12.1678222,2.25848889 L11.3642667,2.25848889 L11.9957333,2.71857778 L11.7091556,3.52142222 L12.3975111,3.00515556 L13.0282667,3.52142222 L12.7409778,2.71857778 L13.3731556,2.25848889 L13.3731556,2.25848889 Z M9.58648889,2.25848889 L8.84124444,2.25848889 L8.55395556,1.57084444 L8.32497778,2.25848889 L7.5776,2.25848889 L8.20977778,2.71857778 L7.9232,3.52142222 L8.55395556,3.00515556 L9.18471111,3.52142222 L8.95502222,2.71857778 L9.58648889,2.25848889 L9.58648889,2.25848889 Z M5.79982222,2.25848889 L4.99626667,2.25848889 L4.768,1.57084444 L4.53831111,2.25848889 L3.73475556,2.25848889 L4.36622222,2.71857778 L4.13582222,3.52142222 L4.768,3.00515556 L5.39804444,3.52142222 L5.16906667,2.71857778 L5.79982222,2.25848889 L5.79982222,2.25848889 Z M2.01386667,2.25848889 L1.21102222,2.25848889 L0.981333333,1.57084444 L0.752355556,2.25848889 L-0.0512,2.25848889 L0.579555556,2.71857778 L0.349155556,3.52142222 L0.981333333,3.00515556 L1.61208889,3.52142222 L1.38168889,2.71857778 L2.01386667,2.25848889 L2.01386667,2.25848889 Z M-1.82968889,2.25848889 L-2.57564444,2.25848889 L-2.80462222,1.57084444 L-3.03502222,2.25848889 L-3.83786667,2.25848889 L-3.20711111,2.71857778 L-3.4944,3.52142222 L-2.80462222,3.00515556 L-2.17457778,3.52142222 L-2.46115556,2.71857778 L-1.82968889,2.25848889 L-1.82968889,2.25848889 Z M15.3813333,11.4958222 L14.6346667,11.4958222 L14.3480889,10.8074667 L14.1176889,11.4958222 L13.3731556,11.4958222 L14.0039111,11.9552 L13.7166222,12.6997333 L14.3480889,12.2417778 L14.9795556,12.6997333 L14.7491556,11.9552 L15.3813333,11.4958222 L15.3813333,11.4958222 Z M11.5953778,11.4958222 L10.7911111,11.4958222 L10.5621333,10.8074667 L10.3317333,11.4958222 L9.52888889,11.4958222 L10.1603556,11.9552 L9.93066667,12.6997333 L10.5621333,12.2417778 L11.1928889,12.6997333 L10.9632,11.9552 L11.5953778,11.4958222 L11.5953778,11.4958222 Z M7.7504,11.4958222 L7.00515556,11.4958222 L6.77546667,10.8074667 L6.54577778,11.4958222 L5.74293333,11.4958222 L6.3744,11.9552 L6.08711111,12.6997333 L6.77546667,12.2417778 L7.40622222,12.6997333 L7.17653333,11.9552 L7.7504,11.4958222 L7.7504,11.4958222 Z M3.96373333,11.4958222 L3.21777778,11.4958222 L2.9888,10.8074667 L2.70222222,11.4958222 L1.95626667,11.4958222 L2.58773333,11.9552 L2.29973333,12.6997333 L2.9888,12.2417778 L3.62026667,12.6997333 L3.33297778,11.9552 L3.96373333,11.4958222 L3.96373333,11.4958222 Z M0.177777778,11.4958222 L-0.568177778,11.4958222 L-0.854755556,10.8074667 L-1.08373333,11.4958222 L-1.82968889,11.4958222 L-1.19822222,11.9552 L-1.48622222,12.6997333 L-0.854755556,12.2417778 L-0.224,12.6997333 L-0.452977778,11.9552 L0.177777778,11.4958222 L0.177777778,11.4958222 Z M-3.60746667,11.4958222 L-4.41102222,11.4958222 L-4.64142222,10.8074667 L-4.87111111,11.4958222 L-5.67395556,11.4958222 L-5.04248889,11.9552 L-5.27217778,12.6997333 L-4.64142222,12.2417778 L-4.00995556,12.6997333 L-4.23964444,11.9552 L-3.60746667,11.4958222 L-3.60746667,11.4958222 Z M15.3813333,7.82364444 L14.6346667,7.82364444 L14.3480889,7.07768889 L14.1176889,7.82364444 L13.3731556,7.82364444 L14.0039111,8.28373333 L13.7166222,9.02826667 L14.3480889,8.57031111 L14.9795556,9.02826667 L14.7491556,8.28373333 L15.3813333,7.82364444 L15.3813333,7.82364444 Z M11.5953778,7.82364444 L10.7911111,7.82364444 L10.5621333,7.07768889 L10.3317333,7.82364444 L9.52888889,7.82364444 L10.1603556,8.28373333 L9.93066667,9.02826667 L10.5621333,8.57031111 L11.1928889,9.02826667 L10.9632,8.28373333 L11.5953778,7.82364444 L11.5953778,7.82364444 Z M7.7504,7.82364444 L7.00515556,7.82364444 L6.77546667,7.07768889 L6.54577778,7.82364444 L5.74293333,7.82364444 L6.3744,8.28373333 L6.08711111,9.02826667 L6.77546667,8.57031111 L7.40622222,9.02826667 L7.17653333,8.28373333 L7.7504,7.82364444 L7.7504,7.82364444 Z M3.96373333,7.82364444 L3.21777778,7.82364444 L2.9888,7.07768889 L2.70222222,7.82364444 L1.95626667,7.82364444 L2.58773333,8.28373333 L2.29973333,9.02826667 L2.9888,8.57031111 L3.62026667,9.02826667 L3.33297778,8.28373333 L3.96373333,7.82364444 L3.96373333,7.82364444 Z M0.177777778,7.82364444 L-0.568177778,7.82364444 L-0.854755556,7.07768889 L-1.08373333,7.82364444 L-1.82968889,7.82364444 L-1.19822222,8.28373333 L-1.48622222,9.02826667 L-0.854755556,8.57031111 L-0.224,9.02826667 L-0.452977778,8.28373333 L0.177777778,7.82364444 L0.177777778,7.82364444 Z M-3.60746667,7.82364444 L-4.41102222,7.82364444 L-4.64142222,7.07768889 L-4.87111111,7.82364444 L-5.67395556,7.82364444 L-5.04248889,8.28373333 L-5.27217778,9.02826667 L-4.64142222,8.57031111 L-4.00995556,9.02826667 L-4.23964444,8.28373333 L-3.60746667,7.82364444 L-3.60746667,7.82364444 Z M15.3813333,4.15288889 L14.6346667,4.15288889 L14.3480889,3.40693333 L14.1176889,4.15288889 L13.3731556,4.15288889 L14.0039111,4.61155556 L13.7166222,5.35751111 L14.3480889,4.89813333 L14.9795556,5.35751111 L14.7491556,4.61155556 L15.3813333,4.15288889 L15.3813333,4.15288889 Z M11.5953778,4.15288889 L10.7911111,4.15288889 L10.5621333,3.40693333 L10.3317333,4.15288889 L9.52888889,4.15288889 L10.1603556,4.61155556 L9.93066667,5.35751111 L10.5621333,4.89813333 L11.1928889,5.35751111 L10.9632,4.61155556 L11.5953778,4.15288889 L11.5953778,4.15288889 Z M7.7504,4.15288889 L7.00515556,4.15288889 L6.77546667,3.40693333 L6.54577778,4.15288889 L5.74293333,4.15288889 L6.3744,4.61155556 L6.08711111,5.35751111 L6.77546667,4.89813333 L7.40622222,5.35751111 L7.17653333,4.61155556 L7.7504,4.15288889 L7.7504,4.15288889 Z M3.96373333,4.15288889 L3.21777778,4.15288889 L2.9888,3.40693333 L2.70222222,4.15288889 L1.95626667,4.15288889 L2.58773333,4.61155556 L2.29973333,5.35751111 L2.9888,4.89813333 L3.62026667,5.35751111 L3.33297778,4.61155556 L3.96373333,4.15288889 L3.96373333,4.15288889 Z M0.177777778,4.15288889 L-0.568177778,4.15288889 L-0.854755556,3.40693333 L-1.08373333,4.15288889 L-1.82968889,4.15288889 L-1.19822222,4.61155556 L-1.48622222,5.35751111 L-0.854755556,4.89813333 L-0.224,5.35751111 L-0.452977778,4.61155556 L0.177777778,4.15288889 L0.177777778,4.15288889 Z M-3.60746667,4.15288889 L-4.41102222,4.15288889 L-4.64142222,3.40693333 L-4.87111111,4.15288889 L-5.67395556,4.15288889 L-5.04248889,4.61155556 L-5.27217778,5.35751111 L-4.64142222,4.89813333 L-4.00995556,5.35751111 L-4.23964444,4.61155556 L-3.60746667,4.15288889 L-3.60746667,4.15288889 Z M15.3813333,0.423111111 L14.6346667,0.423111111 L14.3480889,-0.265244444 L14.1176889,0.423111111 L13.3731556,0.423111111 L14.0039111,0.8832 L13.7166222,1.68533333 L14.3480889,1.16906667 L14.9795556,1.62773333 L14.7491556,0.8832 L15.3813333,0.423111111 L15.3813333,0.423111111 Z M11.5953778,0.423111111 L10.7911111,0.423111111 L10.5621333,-0.265244444 L10.3317333,0.423111111 L9.52888889,0.423111111 L10.1603556,0.8832 L9.93066667,1.68533333 L10.5621333,1.16906667 L11.1928889,1.62773333 L10.9632,0.8832 L11.5953778,0.423111111 L11.5953778,0.423111111 Z M7.7504,0.423111111 L7.00515556,0.423111111 L6.77546667,-0.265244444 L6.54577778,0.423111111 L5.74293333,0.423111111 L6.3744,0.8832 L6.08711111,1.68533333 L6.77546667,1.16906667 L7.40622222,1.62773333 L7.17653333,0.8832 L7.7504,0.423111111 L7.7504,0.423111111 Z M3.96373333,0.423111111 L3.21777778,0.423111111 L2.9888,-0.265244444 L2.70222222,0.423111111 L1.95626667,0.423111111 L2.58773333,0.8832 L2.29973333,1.68533333 L2.9888,1.16906667 L3.62026667,1.62773333 L3.33297778,0.8832 L3.96373333,0.423111111 L3.96373333,0.423111111 Z M0.177777778,0.423111111 L-0.568177778,0.423111111 L-0.854755556,-0.265244444 L-1.08373333,0.423111111 L-1.82968889,0.423111111 L-1.19822222,0.8832 L-1.48622222,1.68533333 L-0.854755556,1.16906667 L-0.224,1.62773333 L-0.452977778,0.8832 L0.177777778,0.423111111 L0.177777778,0.423111111 Z" id="Fill-1___lA152YVC" fill="#3B3A6D" mask="url(#mask-2___lA152YVC)"></path>
                <path d="M16.4707556,-0.9536 L44.1116444,-0.9536 L44.1116444,1.62702222 L16.4707556,1.62702222 L16.4707556,-0.9536 Z M16.4707556,4.15288889 L44.1116444,4.15288889 L44.1116444,6.73422222 L16.4707556,6.73422222 L16.4707556,4.15288889 Z M16.4707556,9.25866667 L44.1116444,9.25866667 L44.1116444,11.84 L16.4707556,11.84 L16.4707556,9.25866667 Z M16.4707556,14.3637333 L44.1116444,14.3637333 L44.1116444,16.9450667 L16.4707556,16.9450667 L16.4707556,14.3637333 Z M-6.5344,19.4688 L44.1116444,19.4688 L44.1116444,22.0508444 L-6.5344,22.0508444 L-6.5344,19.4688 Z M-6.5344,24.576 L44.1116444,24.576 L44.1116444,27.1573333 L-6.5344,27.1573333 L-6.5344,24.576 Z M-6.5344,29.6817778 L44.1116444,29.6817778 L44.1116444,32.2624 L-6.5344,32.2624 L-6.5344,29.6817778 Z" id="Fill-2___lA152YVC" fill="#CF2B38" mask="url(#mask-2___lA152YVC)"></path>
            </g>
        </g>
    </g>
</svg>